<mxfile host="Electron" agent="Mozilla/5.0 (Windows NT 10.0; Win64; x64) AppleWebKit/537.36 (KHTML, like Gecko) draw.io/27.0.5 Chrome/134.0.6998.205 Electron/35.3.0 Safari/537.36" version="27.0.5">
  <diagram name="Страница — 1" id="Rzo609bJXDnjy802Scov">
    <mxGraphModel dx="1426" dy="849" grid="1" gridSize="10" guides="1" tooltips="1" connect="1" arrows="1" fold="1" page="1" pageScale="1" pageWidth="3300" pageHeight="4681" background="none" math="0" shadow="0">
      <root>
        <mxCell id="0" />
        <mxCell id="1" parent="0" />
        <mxCell id="jODI6DHRUSTKKwbDd7Hk-31" value="users" style="swimlane;fontStyle=0;childLayout=stackLayout;horizontal=1;startSize=20;fillColor=none;horizontalStack=0;resizeParent=1;resizeParentMax=0;resizeLast=0;collapsible=1;marginBottom=0;html=1;labelBackgroundColor=none;strokeColor=#DDA15E;fontColor=#FEFAE0;" parent="1" vertex="1">
          <mxGeometry x="830" y="270" width="110" height="258" as="geometry" />
        </mxCell>
        <mxCell id="jODI6DHRUSTKKwbDd7Hk-48" value="id" style="text;strokeColor=none;fillColor=none;align=left;verticalAlign=top;spacingLeft=4;spacingRight=4;overflow=hidden;rotatable=0;points=[[0,0.5],[1,0.5]];portConstraint=eastwest;whiteSpace=wrap;html=1;labelBackgroundColor=none;fontColor=#FEFAE0;" parent="jODI6DHRUSTKKwbDd7Hk-31" vertex="1">
          <mxGeometry y="20" width="110" height="30" as="geometry" />
        </mxCell>
        <mxCell id="jODI6DHRUSTKKwbDd7Hk-33" value="Last name" style="text;strokeColor=none;fillColor=none;align=left;verticalAlign=top;spacingLeft=4;spacingRight=4;overflow=hidden;rotatable=0;points=[[0,0.5],[1,0.5]];portConstraint=eastwest;whiteSpace=wrap;html=1;labelBackgroundColor=none;fontColor=#FEFAE0;" parent="jODI6DHRUSTKKwbDd7Hk-31" vertex="1">
          <mxGeometry y="50" width="110" height="26" as="geometry" />
        </mxCell>
        <mxCell id="jODI6DHRUSTKKwbDd7Hk-32" value="First name" style="text;strokeColor=none;fillColor=none;align=left;verticalAlign=top;spacingLeft=4;spacingRight=4;overflow=hidden;rotatable=0;points=[[0,0.5],[1,0.5]];portConstraint=eastwest;whiteSpace=wrap;html=1;labelBackgroundColor=none;fontColor=#FEFAE0;" parent="jODI6DHRUSTKKwbDd7Hk-31" vertex="1">
          <mxGeometry y="76" width="110" height="26" as="geometry" />
        </mxCell>
        <mxCell id="jODI6DHRUSTKKwbDd7Hk-43" value="email" style="text;strokeColor=none;fillColor=none;align=left;verticalAlign=top;spacingLeft=4;spacingRight=4;overflow=hidden;rotatable=0;points=[[0,0.5],[1,0.5]];portConstraint=eastwest;whiteSpace=wrap;html=1;labelBackgroundColor=none;fontColor=#FEFAE0;" parent="jODI6DHRUSTKKwbDd7Hk-31" vertex="1">
          <mxGeometry y="102" width="110" height="26" as="geometry" />
        </mxCell>
        <mxCell id="jODI6DHRUSTKKwbDd7Hk-44" value="password" style="text;strokeColor=none;fillColor=none;align=left;verticalAlign=top;spacingLeft=4;spacingRight=4;overflow=hidden;rotatable=0;points=[[0,0.5],[1,0.5]];portConstraint=eastwest;whiteSpace=wrap;html=1;labelBackgroundColor=none;fontColor=#FEFAE0;" parent="jODI6DHRUSTKKwbDd7Hk-31" vertex="1">
          <mxGeometry y="128" width="110" height="26" as="geometry" />
        </mxCell>
        <mxCell id="jODI6DHRUSTKKwbDd7Hk-34" value="description" style="text;strokeColor=none;fillColor=none;align=left;verticalAlign=top;spacingLeft=4;spacingRight=4;overflow=hidden;rotatable=0;points=[[0,0.5],[1,0.5]];portConstraint=eastwest;whiteSpace=wrap;html=1;labelBackgroundColor=none;fontColor=#FEFAE0;" parent="jODI6DHRUSTKKwbDd7Hk-31" vertex="1">
          <mxGeometry y="154" width="110" height="26" as="geometry" />
        </mxCell>
        <mxCell id="jODI6DHRUSTKKwbDd7Hk-76" value="role" style="text;strokeColor=none;fillColor=none;align=left;verticalAlign=top;spacingLeft=4;spacingRight=4;overflow=hidden;rotatable=0;points=[[0,0.5],[1,0.5]];portConstraint=eastwest;whiteSpace=wrap;html=1;labelBackgroundColor=none;fontColor=#FEFAE0;" parent="jODI6DHRUSTKKwbDd7Hk-31" vertex="1">
          <mxGeometry y="180" width="110" height="26" as="geometry" />
        </mxCell>
        <mxCell id="6q7gE1WlEavFfcoU3s-2-2" value="balance" style="text;strokeColor=none;fillColor=none;align=left;verticalAlign=top;spacingLeft=4;spacingRight=4;overflow=hidden;rotatable=0;points=[[0,0.5],[1,0.5]];portConstraint=eastwest;whiteSpace=wrap;html=1;labelBackgroundColor=none;fontColor=#FEFAE0;" vertex="1" parent="jODI6DHRUSTKKwbDd7Hk-31">
          <mxGeometry y="206" width="110" height="26" as="geometry" />
        </mxCell>
        <mxCell id="jODI6DHRUSTKKwbDd7Hk-35" value="image" style="text;strokeColor=none;fillColor=none;align=left;verticalAlign=top;spacingLeft=4;spacingRight=4;overflow=hidden;rotatable=0;points=[[0,0.5],[1,0.5]];portConstraint=eastwest;whiteSpace=wrap;html=1;labelBackgroundColor=none;fontColor=#FEFAE0;" parent="jODI6DHRUSTKKwbDd7Hk-31" vertex="1">
          <mxGeometry y="232" width="110" height="26" as="geometry" />
        </mxCell>
        <mxCell id="jODI6DHRUSTKKwbDd7Hk-50" value="courses" style="swimlane;fontStyle=0;childLayout=stackLayout;horizontal=1;startSize=20;fillColor=none;horizontalStack=0;resizeParent=1;resizeParentMax=0;resizeLast=0;collapsible=1;marginBottom=0;html=1;labelBackgroundColor=none;strokeColor=#DDA15E;fontColor=#FEFAE0;" parent="1" vertex="1">
          <mxGeometry x="670" y="270" width="80" height="206" as="geometry" />
        </mxCell>
        <mxCell id="jODI6DHRUSTKKwbDd7Hk-51" value="id" style="text;strokeColor=none;fillColor=none;align=left;verticalAlign=top;spacingLeft=4;spacingRight=4;overflow=hidden;rotatable=0;points=[[0,0.5],[1,0.5]];portConstraint=eastwest;whiteSpace=wrap;html=1;labelBackgroundColor=none;fontColor=#FEFAE0;" parent="jODI6DHRUSTKKwbDd7Hk-50" vertex="1">
          <mxGeometry y="20" width="80" height="30" as="geometry" />
        </mxCell>
        <mxCell id="jODI6DHRUSTKKwbDd7Hk-67" value="name" style="text;strokeColor=none;fillColor=none;align=left;verticalAlign=top;spacingLeft=4;spacingRight=4;overflow=hidden;rotatable=0;points=[[0,0.5],[1,0.5]];portConstraint=eastwest;whiteSpace=wrap;html=1;labelBackgroundColor=none;fontColor=#FEFAE0;" parent="jODI6DHRUSTKKwbDd7Hk-50" vertex="1">
          <mxGeometry y="50" width="80" height="26" as="geometry" />
        </mxCell>
        <mxCell id="jODI6DHRUSTKKwbDd7Hk-66" value="price" style="text;strokeColor=none;fillColor=none;align=left;verticalAlign=top;spacingLeft=4;spacingRight=4;overflow=hidden;rotatable=0;points=[[0,0.5],[1,0.5]];portConstraint=eastwest;whiteSpace=wrap;html=1;labelBackgroundColor=none;fontColor=#FEFAE0;" parent="jODI6DHRUSTKKwbDd7Hk-50" vertex="1">
          <mxGeometry y="76" width="80" height="26" as="geometry" />
        </mxCell>
        <mxCell id="jODI6DHRUSTKKwbDd7Hk-77" value="description" style="text;strokeColor=none;fillColor=none;align=left;verticalAlign=top;spacingLeft=4;spacingRight=4;overflow=hidden;rotatable=0;points=[[0,0.5],[1,0.5]];portConstraint=eastwest;whiteSpace=wrap;html=1;labelBackgroundColor=none;fontColor=#FEFAE0;" parent="jODI6DHRUSTKKwbDd7Hk-50" vertex="1">
          <mxGeometry y="102" width="80" height="26" as="geometry" />
        </mxCell>
        <mxCell id="jODI6DHRUSTKKwbDd7Hk-68" value="teacher_id" style="text;strokeColor=none;fillColor=none;align=left;verticalAlign=top;spacingLeft=4;spacingRight=4;overflow=hidden;rotatable=0;points=[[0,0.5],[1,0.5]];portConstraint=eastwest;whiteSpace=wrap;html=1;labelBackgroundColor=none;fontColor=#FEFAE0;" parent="jODI6DHRUSTKKwbDd7Hk-50" vertex="1">
          <mxGeometry y="128" width="80" height="26" as="geometry" />
        </mxCell>
        <mxCell id="jODI6DHRUSTKKwbDd7Hk-128" value="start_at" style="text;strokeColor=none;fillColor=none;align=left;verticalAlign=top;spacingLeft=4;spacingRight=4;overflow=hidden;rotatable=0;points=[[0,0.5],[1,0.5]];portConstraint=eastwest;whiteSpace=wrap;html=1;labelBackgroundColor=none;fontColor=#FEFAE0;" parent="jODI6DHRUSTKKwbDd7Hk-50" vertex="1">
          <mxGeometry y="154" width="80" height="26" as="geometry" />
        </mxCell>
        <mxCell id="jODI6DHRUSTKKwbDd7Hk-129" value="end_at" style="text;strokeColor=none;fillColor=none;align=left;verticalAlign=top;spacingLeft=4;spacingRight=4;overflow=hidden;rotatable=0;points=[[0,0.5],[1,0.5]];portConstraint=eastwest;whiteSpace=wrap;html=1;labelBackgroundColor=none;fontColor=#FEFAE0;" parent="jODI6DHRUSTKKwbDd7Hk-50" vertex="1">
          <mxGeometry y="180" width="80" height="26" as="geometry" />
        </mxCell>
        <mxCell id="jODI6DHRUSTKKwbDd7Hk-59" value="assessed_hw" style="swimlane;fontStyle=0;childLayout=stackLayout;horizontal=1;startSize=20;fillColor=none;horizontalStack=0;resizeParent=1;resizeParentMax=0;resizeLast=0;collapsible=1;marginBottom=0;html=1;labelBackgroundColor=none;strokeColor=#DDA15E;fontColor=#FEFAE0;" parent="1" vertex="1">
          <mxGeometry x="320" y="510" width="140" height="170" as="geometry" />
        </mxCell>
        <mxCell id="jODI6DHRUSTKKwbDd7Hk-60" value="id" style="text;strokeColor=none;fillColor=none;align=left;verticalAlign=top;spacingLeft=4;spacingRight=4;overflow=hidden;rotatable=0;points=[[0,0.5],[1,0.5]];portConstraint=eastwest;whiteSpace=wrap;html=1;labelBackgroundColor=none;fontColor=#FEFAE0;" parent="jODI6DHRUSTKKwbDd7Hk-59" vertex="1">
          <mxGeometry y="20" width="140" height="30" as="geometry" />
        </mxCell>
        <mxCell id="jODI6DHRUSTKKwbDd7Hk-122" value="submission_id" style="text;strokeColor=none;fillColor=none;align=left;verticalAlign=top;spacingLeft=4;spacingRight=4;overflow=hidden;rotatable=0;points=[[0,0.5],[1,0.5]];portConstraint=eastwest;whiteSpace=wrap;html=1;labelBackgroundColor=none;fontColor=#FEFAE0;" parent="jODI6DHRUSTKKwbDd7Hk-59" vertex="1">
          <mxGeometry y="50" width="140" height="30" as="geometry" />
        </mxCell>
        <mxCell id="jODI6DHRUSTKKwbDd7Hk-123" value="assessed_by_id" style="text;strokeColor=none;fillColor=none;align=left;verticalAlign=top;spacingLeft=4;spacingRight=4;overflow=hidden;rotatable=0;points=[[0,0.5],[1,0.5]];portConstraint=eastwest;whiteSpace=wrap;html=1;labelBackgroundColor=none;fontColor=#FEFAE0;" parent="jODI6DHRUSTKKwbDd7Hk-59" vertex="1">
          <mxGeometry y="80" width="140" height="30" as="geometry" />
        </mxCell>
        <mxCell id="jODI6DHRUSTKKwbDd7Hk-124" value="points" style="text;strokeColor=none;fillColor=none;align=left;verticalAlign=top;spacingLeft=4;spacingRight=4;overflow=hidden;rotatable=0;points=[[0,0.5],[1,0.5]];portConstraint=eastwest;whiteSpace=wrap;html=1;labelBackgroundColor=none;fontColor=#FEFAE0;" parent="jODI6DHRUSTKKwbDd7Hk-59" vertex="1">
          <mxGeometry y="110" width="140" height="30" as="geometry" />
        </mxCell>
        <mxCell id="jODI6DHRUSTKKwbDd7Hk-125" value="comment" style="text;strokeColor=none;fillColor=none;align=left;verticalAlign=top;spacingLeft=4;spacingRight=4;overflow=hidden;rotatable=0;points=[[0,0.5],[1,0.5]];portConstraint=eastwest;whiteSpace=wrap;html=1;labelBackgroundColor=none;fontColor=#FEFAE0;" parent="jODI6DHRUSTKKwbDd7Hk-59" vertex="1">
          <mxGeometry y="140" width="140" height="30" as="geometry" />
        </mxCell>
        <mxCell id="jODI6DHRUSTKKwbDd7Hk-78" value="modules" style="swimlane;fontStyle=0;childLayout=stackLayout;horizontal=1;startSize=20;fillColor=none;horizontalStack=0;resizeParent=1;resizeParentMax=0;resizeLast=0;collapsible=1;marginBottom=0;html=1;labelBackgroundColor=none;strokeColor=#DDA15E;fontColor=#FEFAE0;" parent="1" vertex="1">
          <mxGeometry x="530" y="270" width="100" height="154" as="geometry" />
        </mxCell>
        <mxCell id="jODI6DHRUSTKKwbDd7Hk-79" value="id" style="text;strokeColor=none;fillColor=none;align=left;verticalAlign=top;spacingLeft=4;spacingRight=4;overflow=hidden;rotatable=0;points=[[0,0.5],[1,0.5]];portConstraint=eastwest;whiteSpace=wrap;html=1;labelBackgroundColor=none;fontColor=#FEFAE0;" parent="jODI6DHRUSTKKwbDd7Hk-78" vertex="1">
          <mxGeometry y="20" width="100" height="30" as="geometry" />
        </mxCell>
        <mxCell id="jODI6DHRUSTKKwbDd7Hk-75" value="name" style="text;strokeColor=none;fillColor=none;align=left;verticalAlign=top;spacingLeft=4;spacingRight=4;overflow=hidden;rotatable=0;points=[[0,0.5],[1,0.5]];portConstraint=eastwest;whiteSpace=wrap;html=1;labelBackgroundColor=none;fontColor=#FEFAE0;" parent="jODI6DHRUSTKKwbDd7Hk-78" vertex="1">
          <mxGeometry y="50" width="100" height="26" as="geometry" />
        </mxCell>
        <mxCell id="jODI6DHRUSTKKwbDd7Hk-84" value="description" style="text;strokeColor=none;fillColor=none;align=left;verticalAlign=top;spacingLeft=4;spacingRight=4;overflow=hidden;rotatable=0;points=[[0,0.5],[1,0.5]];portConstraint=eastwest;whiteSpace=wrap;html=1;labelBackgroundColor=none;fontColor=#FEFAE0;" parent="jODI6DHRUSTKKwbDd7Hk-78" vertex="1">
          <mxGeometry y="76" width="100" height="26" as="geometry" />
        </mxCell>
        <mxCell id="jODI6DHRUSTKKwbDd7Hk-74" value="course_id" style="text;strokeColor=none;fillColor=none;align=left;verticalAlign=top;spacingLeft=4;spacingRight=4;overflow=hidden;rotatable=0;points=[[0,0.5],[1,0.5]];portConstraint=eastwest;whiteSpace=wrap;html=1;labelBackgroundColor=none;fontColor=#FEFAE0;" parent="jODI6DHRUSTKKwbDd7Hk-78" vertex="1">
          <mxGeometry y="102" width="100" height="26" as="geometry" />
        </mxCell>
        <mxCell id="jODI6DHRUSTKKwbDd7Hk-65" value="number" style="text;strokeColor=none;fillColor=none;align=left;verticalAlign=top;spacingLeft=4;spacingRight=4;overflow=hidden;rotatable=0;points=[[0,0.5],[1,0.5]];portConstraint=eastwest;whiteSpace=wrap;html=1;labelBackgroundColor=none;fontColor=#FEFAE0;" parent="jODI6DHRUSTKKwbDd7Hk-78" vertex="1">
          <mxGeometry y="128" width="100" height="26" as="geometry" />
        </mxCell>
        <mxCell id="jODI6DHRUSTKKwbDd7Hk-82" value="orders" style="swimlane;fontStyle=0;childLayout=stackLayout;horizontal=1;startSize=20;fillColor=none;horizontalStack=0;resizeParent=1;resizeParentMax=0;resizeLast=0;collapsible=1;marginBottom=0;html=1;labelBackgroundColor=none;strokeColor=#DDA15E;fontColor=#FEFAE0;" parent="1" vertex="1">
          <mxGeometry x="830" y="572" width="110" height="154" as="geometry" />
        </mxCell>
        <mxCell id="jODI6DHRUSTKKwbDd7Hk-83" value="id" style="text;strokeColor=none;fillColor=none;align=left;verticalAlign=top;spacingLeft=4;spacingRight=4;overflow=hidden;rotatable=0;points=[[0,0.5],[1,0.5]];portConstraint=eastwest;whiteSpace=wrap;html=1;labelBackgroundColor=none;fontColor=#FEFAE0;" parent="jODI6DHRUSTKKwbDd7Hk-82" vertex="1">
          <mxGeometry y="20" width="110" height="30" as="geometry" />
        </mxCell>
        <mxCell id="jODI6DHRUSTKKwbDd7Hk-62" value="user_id" style="text;strokeColor=none;fillColor=none;align=left;verticalAlign=top;spacingLeft=4;spacingRight=4;overflow=hidden;rotatable=0;points=[[0,0.5],[1,0.5]];portConstraint=eastwest;whiteSpace=wrap;html=1;labelBackgroundColor=none;fontColor=#FEFAE0;" parent="jODI6DHRUSTKKwbDd7Hk-82" vertex="1">
          <mxGeometry y="50" width="110" height="26" as="geometry" />
        </mxCell>
        <mxCell id="6q7gE1WlEavFfcoU3s-2-28" value="course_id" style="text;strokeColor=none;fillColor=none;align=left;verticalAlign=top;spacingLeft=4;spacingRight=4;overflow=hidden;rotatable=0;points=[[0,0.5],[1,0.5]];portConstraint=eastwest;whiteSpace=wrap;html=1;labelBackgroundColor=none;fontColor=#FEFAE0;" vertex="1" parent="jODI6DHRUSTKKwbDd7Hk-82">
          <mxGeometry y="76" width="110" height="26" as="geometry" />
        </mxCell>
        <mxCell id="jODI6DHRUSTKKwbDd7Hk-69" value="price" style="text;strokeColor=none;fillColor=none;align=left;verticalAlign=top;spacingLeft=4;spacingRight=4;overflow=hidden;rotatable=0;points=[[0,0.5],[1,0.5]];portConstraint=eastwest;whiteSpace=wrap;html=1;labelBackgroundColor=none;fontColor=#FEFAE0;" parent="jODI6DHRUSTKKwbDd7Hk-82" vertex="1">
          <mxGeometry y="102" width="110" height="26" as="geometry" />
        </mxCell>
        <mxCell id="6q7gE1WlEavFfcoU3s-2-29" value="status" style="text;strokeColor=none;fillColor=none;align=left;verticalAlign=top;spacingLeft=4;spacingRight=4;overflow=hidden;rotatable=0;points=[[0,0.5],[1,0.5]];portConstraint=eastwest;whiteSpace=wrap;html=1;labelBackgroundColor=none;fontColor=#FEFAE0;" vertex="1" parent="jODI6DHRUSTKKwbDd7Hk-82">
          <mxGeometry y="128" width="110" height="26" as="geometry" />
        </mxCell>
        <mxCell id="jODI6DHRUSTKKwbDd7Hk-85" value="lessons" style="swimlane;fontStyle=0;childLayout=stackLayout;horizontal=1;startSize=20;fillColor=none;horizontalStack=0;resizeParent=1;resizeParentMax=0;resizeLast=0;collapsible=1;marginBottom=0;html=1;labelBackgroundColor=none;strokeColor=#DDA15E;fontColor=#FEFAE0;" parent="1" vertex="1">
          <mxGeometry x="390" y="270" width="100" height="180" as="geometry" />
        </mxCell>
        <mxCell id="jODI6DHRUSTKKwbDd7Hk-86" value="id" style="text;strokeColor=none;fillColor=none;align=left;verticalAlign=top;spacingLeft=4;spacingRight=4;overflow=hidden;rotatable=0;points=[[0,0.5],[1,0.5]];portConstraint=eastwest;whiteSpace=wrap;html=1;labelBackgroundColor=none;fontColor=#FEFAE0;" parent="jODI6DHRUSTKKwbDd7Hk-85" vertex="1">
          <mxGeometry y="20" width="100" height="30" as="geometry" />
        </mxCell>
        <mxCell id="jODI6DHRUSTKKwbDd7Hk-64" value="name" style="text;strokeColor=none;fillColor=none;align=left;verticalAlign=top;spacingLeft=4;spacingRight=4;overflow=hidden;rotatable=0;points=[[0,0.5],[1,0.5]];portConstraint=eastwest;whiteSpace=wrap;html=1;labelBackgroundColor=none;fontColor=#FEFAE0;" parent="jODI6DHRUSTKKwbDd7Hk-85" vertex="1">
          <mxGeometry y="50" width="100" height="26" as="geometry" />
        </mxCell>
        <mxCell id="jODI6DHRUSTKKwbDd7Hk-73" value="description" style="text;strokeColor=none;fillColor=none;align=left;verticalAlign=top;spacingLeft=4;spacingRight=4;overflow=hidden;rotatable=0;points=[[0,0.5],[1,0.5]];portConstraint=eastwest;whiteSpace=wrap;html=1;labelBackgroundColor=none;fontColor=#FEFAE0;" parent="jODI6DHRUSTKKwbDd7Hk-85" vertex="1">
          <mxGeometry y="76" width="100" height="26" as="geometry" />
        </mxCell>
        <mxCell id="jODI6DHRUSTKKwbDd7Hk-70" value="video_link" style="text;strokeColor=none;fillColor=none;align=left;verticalAlign=top;spacingLeft=4;spacingRight=4;overflow=hidden;rotatable=0;points=[[0,0.5],[1,0.5]];portConstraint=eastwest;whiteSpace=wrap;html=1;labelBackgroundColor=none;fontColor=#FEFAE0;" parent="jODI6DHRUSTKKwbDd7Hk-85" vertex="1">
          <mxGeometry y="102" width="100" height="26" as="geometry" />
        </mxCell>
        <mxCell id="jODI6DHRUSTKKwbDd7Hk-63" value="module_id" style="text;strokeColor=none;fillColor=none;align=left;verticalAlign=top;spacingLeft=4;spacingRight=4;overflow=hidden;rotatable=0;points=[[0,0.5],[1,0.5]];portConstraint=eastwest;whiteSpace=wrap;html=1;labelBackgroundColor=none;fontColor=#FEFAE0;" parent="jODI6DHRUSTKKwbDd7Hk-85" vertex="1">
          <mxGeometry y="128" width="100" height="26" as="geometry" />
        </mxCell>
        <mxCell id="jODI6DHRUSTKKwbDd7Hk-138" value="number" style="text;strokeColor=none;fillColor=none;align=left;verticalAlign=top;spacingLeft=4;spacingRight=4;overflow=hidden;rotatable=0;points=[[0,0.5],[1,0.5]];portConstraint=eastwest;whiteSpace=wrap;html=1;labelBackgroundColor=none;fontColor=#FEFAE0;" parent="jODI6DHRUSTKKwbDd7Hk-85" vertex="1">
          <mxGeometry y="154" width="100" height="26" as="geometry" />
        </mxCell>
        <mxCell id="jODI6DHRUSTKKwbDd7Hk-87" value="roles" style="swimlane;fontStyle=0;childLayout=stackLayout;horizontal=1;startSize=20;fillColor=none;horizontalStack=0;resizeParent=1;resizeParentMax=0;resizeLast=0;collapsible=1;marginBottom=0;html=1;labelBackgroundColor=none;strokeColor=#DDA15E;fontColor=#FEFAE0;" parent="1" vertex="1">
          <mxGeometry x="1020" y="270" width="140" height="76" as="geometry" />
        </mxCell>
        <mxCell id="jODI6DHRUSTKKwbDd7Hk-88" value="id" style="text;strokeColor=none;fillColor=none;align=left;verticalAlign=top;spacingLeft=4;spacingRight=4;overflow=hidden;rotatable=0;points=[[0,0.5],[1,0.5]];portConstraint=eastwest;whiteSpace=wrap;html=1;labelBackgroundColor=none;fontColor=#FEFAE0;" parent="jODI6DHRUSTKKwbDd7Hk-87" vertex="1">
          <mxGeometry y="20" width="140" height="30" as="geometry" />
        </mxCell>
        <mxCell id="jODI6DHRUSTKKwbDd7Hk-72" value="name" style="text;strokeColor=none;fillColor=none;align=left;verticalAlign=top;spacingLeft=4;spacingRight=4;overflow=hidden;rotatable=0;points=[[0,0.5],[1,0.5]];portConstraint=eastwest;whiteSpace=wrap;html=1;labelBackgroundColor=none;fontColor=#FEFAE0;" parent="jODI6DHRUSTKKwbDd7Hk-87" vertex="1">
          <mxGeometry y="50" width="140" height="26" as="geometry" />
        </mxCell>
        <mxCell id="jODI6DHRUSTKKwbDd7Hk-98" value="homeworks" style="swimlane;fontStyle=0;childLayout=stackLayout;horizontal=1;startSize=20;fillColor=none;horizontalStack=0;resizeParent=1;resizeParentMax=0;resizeLast=0;collapsible=1;marginBottom=0;html=1;labelBackgroundColor=none;strokeColor=#DDA15E;fontColor=#FEFAE0;" parent="1" vertex="1">
          <mxGeometry x="120" y="497" width="140" height="154" as="geometry" />
        </mxCell>
        <mxCell id="jODI6DHRUSTKKwbDd7Hk-99" value="id" style="text;strokeColor=none;fillColor=none;align=left;verticalAlign=top;spacingLeft=4;spacingRight=4;overflow=hidden;rotatable=0;points=[[0,0.5],[1,0.5]];portConstraint=eastwest;whiteSpace=wrap;html=1;labelBackgroundColor=none;fontColor=#FEFAE0;" parent="jODI6DHRUSTKKwbDd7Hk-98" vertex="1">
          <mxGeometry y="20" width="140" height="30" as="geometry" />
        </mxCell>
        <mxCell id="jODI6DHRUSTKKwbDd7Hk-96" value="lesson_id" style="text;strokeColor=none;fillColor=none;align=left;verticalAlign=top;spacingLeft=4;spacingRight=4;overflow=hidden;rotatable=0;points=[[0,0.5],[1,0.5]];portConstraint=eastwest;whiteSpace=wrap;html=1;labelBackgroundColor=none;fontColor=#FEFAE0;" parent="jODI6DHRUSTKKwbDd7Hk-98" vertex="1">
          <mxGeometry y="50" width="140" height="26" as="geometry" />
        </mxCell>
        <mxCell id="jODI6DHRUSTKKwbDd7Hk-93" value="name" style="text;strokeColor=none;fillColor=none;align=left;verticalAlign=top;spacingLeft=4;spacingRight=4;overflow=hidden;rotatable=0;points=[[0,0.5],[1,0.5]];portConstraint=eastwest;whiteSpace=wrap;html=1;labelBackgroundColor=none;fontColor=#FEFAE0;" parent="jODI6DHRUSTKKwbDd7Hk-98" vertex="1">
          <mxGeometry y="76" width="140" height="26" as="geometry" />
        </mxCell>
        <mxCell id="jODI6DHRUSTKKwbDd7Hk-95" value="description" style="text;strokeColor=none;fillColor=none;align=left;verticalAlign=top;spacingLeft=4;spacingRight=4;overflow=hidden;rotatable=0;points=[[0,0.5],[1,0.5]];portConstraint=eastwest;whiteSpace=wrap;html=1;labelBackgroundColor=none;fontColor=#FEFAE0;" parent="jODI6DHRUSTKKwbDd7Hk-98" vertex="1">
          <mxGeometry y="102" width="140" height="26" as="geometry" />
        </mxCell>
        <mxCell id="jODI6DHRUSTKKwbDd7Hk-94" value="deadline" style="text;strokeColor=none;fillColor=none;align=left;verticalAlign=top;spacingLeft=4;spacingRight=4;overflow=hidden;rotatable=0;points=[[0,0.5],[1,0.5]];portConstraint=eastwest;whiteSpace=wrap;html=1;labelBackgroundColor=none;fontColor=#FEFAE0;" parent="jODI6DHRUSTKKwbDd7Hk-98" vertex="1">
          <mxGeometry y="128" width="140" height="26" as="geometry" />
        </mxCell>
        <mxCell id="jODI6DHRUSTKKwbDd7Hk-100" value="&lt;code data-end=&quot;1954&quot; data-start=&quot;1932&quot;&gt;homework_submissions&lt;/code&gt;" style="swimlane;fontStyle=0;childLayout=stackLayout;horizontal=1;startSize=20;fillColor=none;horizontalStack=0;resizeParent=1;resizeParentMax=0;resizeLast=0;collapsible=1;marginBottom=0;html=1;labelBackgroundColor=none;strokeColor=#DDA15E;fontColor=#FEFAE0;" parent="1" vertex="1">
          <mxGeometry x="550" y="510" width="200" height="128" as="geometry" />
        </mxCell>
        <mxCell id="jODI6DHRUSTKKwbDd7Hk-101" value="id" style="text;strokeColor=none;fillColor=none;align=left;verticalAlign=top;spacingLeft=4;spacingRight=4;overflow=hidden;rotatable=0;points=[[0,0.5],[1,0.5]];portConstraint=eastwest;whiteSpace=wrap;html=1;labelBackgroundColor=none;fontColor=#FEFAE0;" parent="jODI6DHRUSTKKwbDd7Hk-100" vertex="1">
          <mxGeometry y="20" width="200" height="30" as="geometry" />
        </mxCell>
        <mxCell id="jODI6DHRUSTKKwbDd7Hk-92" value="hw_id" style="text;strokeColor=none;fillColor=none;align=left;verticalAlign=top;spacingLeft=4;spacingRight=4;overflow=hidden;rotatable=0;points=[[0,0.5],[1,0.5]];portConstraint=eastwest;whiteSpace=wrap;html=1;labelBackgroundColor=none;fontColor=#FEFAE0;" parent="jODI6DHRUSTKKwbDd7Hk-100" vertex="1">
          <mxGeometry y="50" width="200" height="26" as="geometry" />
        </mxCell>
        <mxCell id="jODI6DHRUSTKKwbDd7Hk-61" value="student_id" style="text;strokeColor=none;fillColor=none;align=left;verticalAlign=top;spacingLeft=4;spacingRight=4;overflow=hidden;rotatable=0;points=[[0,0.5],[1,0.5]];portConstraint=eastwest;whiteSpace=wrap;html=1;labelBackgroundColor=none;fontColor=#FEFAE0;" parent="jODI6DHRUSTKKwbDd7Hk-100" vertex="1">
          <mxGeometry y="76" width="200" height="26" as="geometry" />
        </mxCell>
        <mxCell id="jODI6DHRUSTKKwbDd7Hk-117" value="sumbission" style="text;strokeColor=none;fillColor=none;align=left;verticalAlign=top;spacingLeft=4;spacingRight=4;overflow=hidden;rotatable=0;points=[[0,0.5],[1,0.5]];portConstraint=eastwest;whiteSpace=wrap;html=1;labelBackgroundColor=none;fontColor=#FEFAE0;" parent="jODI6DHRUSTKKwbDd7Hk-100" vertex="1">
          <mxGeometry y="102" width="200" height="26" as="geometry" />
        </mxCell>
        <mxCell id="jODI6DHRUSTKKwbDd7Hk-103" style="edgeStyle=orthogonalEdgeStyle;rounded=0;orthogonalLoop=1;jettySize=auto;html=1;entryX=0;entryY=0.5;entryDx=0;entryDy=0;strokeColor=#DDA15E;fontColor=default;fillColor=#BC6C25;labelBackgroundColor=none;" parent="1" source="jODI6DHRUSTKKwbDd7Hk-68" target="jODI6DHRUSTKKwbDd7Hk-48" edge="1">
          <mxGeometry relative="1" as="geometry" />
        </mxCell>
        <mxCell id="jODI6DHRUSTKKwbDd7Hk-104" style="edgeStyle=orthogonalEdgeStyle;rounded=0;orthogonalLoop=1;jettySize=auto;html=1;entryX=0;entryY=0.5;entryDx=0;entryDy=0;strokeColor=#DDA15E;fontColor=default;fillColor=#BC6C25;labelBackgroundColor=none;" parent="1" source="jODI6DHRUSTKKwbDd7Hk-74" target="jODI6DHRUSTKKwbDd7Hk-51" edge="1">
          <mxGeometry relative="1" as="geometry" />
        </mxCell>
        <mxCell id="jODI6DHRUSTKKwbDd7Hk-105" style="edgeStyle=orthogonalEdgeStyle;rounded=0;orthogonalLoop=1;jettySize=auto;html=1;entryX=0;entryY=0.5;entryDx=0;entryDy=0;strokeColor=#DDA15E;fontColor=default;fillColor=#BC6C25;labelBackgroundColor=none;" parent="1" source="jODI6DHRUSTKKwbDd7Hk-63" target="jODI6DHRUSTKKwbDd7Hk-79" edge="1">
          <mxGeometry relative="1" as="geometry" />
        </mxCell>
        <mxCell id="jODI6DHRUSTKKwbDd7Hk-106" style="edgeStyle=orthogonalEdgeStyle;rounded=0;orthogonalLoop=1;jettySize=auto;html=1;exitX=0;exitY=0.5;exitDx=0;exitDy=0;entryX=0;entryY=0.5;entryDx=0;entryDy=0;strokeColor=#DDA15E;fontColor=default;fillColor=#BC6C25;labelBackgroundColor=none;" parent="1" source="jODI6DHRUSTKKwbDd7Hk-96" target="jODI6DHRUSTKKwbDd7Hk-86" edge="1">
          <mxGeometry relative="1" as="geometry" />
        </mxCell>
        <mxCell id="jODI6DHRUSTKKwbDd7Hk-107" style="edgeStyle=orthogonalEdgeStyle;rounded=0;orthogonalLoop=1;jettySize=auto;html=1;exitX=0;exitY=0.5;exitDx=0;exitDy=0;entryX=1;entryY=0.5;entryDx=0;entryDy=0;strokeColor=#DDA15E;fontColor=default;fillColor=#BC6C25;labelBackgroundColor=none;" parent="1" source="jODI6DHRUSTKKwbDd7Hk-92" target="jODI6DHRUSTKKwbDd7Hk-99" edge="1">
          <mxGeometry relative="1" as="geometry">
            <Array as="points">
              <mxPoint x="520" y="573" />
              <mxPoint x="520" y="470" />
              <mxPoint x="300" y="470" />
              <mxPoint x="300" y="532" />
            </Array>
          </mxGeometry>
        </mxCell>
        <mxCell id="jODI6DHRUSTKKwbDd7Hk-108" style="edgeStyle=orthogonalEdgeStyle;rounded=0;orthogonalLoop=1;jettySize=auto;html=1;entryX=0;entryY=0.5;entryDx=0;entryDy=0;strokeColor=#DDA15E;fontColor=default;fillColor=#BC6C25;labelBackgroundColor=none;" parent="1" source="jODI6DHRUSTKKwbDd7Hk-61" target="jODI6DHRUSTKKwbDd7Hk-48" edge="1">
          <mxGeometry relative="1" as="geometry">
            <Array as="points">
              <mxPoint x="790" y="609" />
              <mxPoint x="790" y="305" />
            </Array>
          </mxGeometry>
        </mxCell>
        <mxCell id="jODI6DHRUSTKKwbDd7Hk-111" style="edgeStyle=orthogonalEdgeStyle;rounded=0;orthogonalLoop=1;jettySize=auto;html=1;entryX=1;entryY=0.5;entryDx=0;entryDy=0;strokeColor=#DDA15E;fontColor=default;fillColor=#BC6C25;labelBackgroundColor=none;exitX=0;exitY=0.5;exitDx=0;exitDy=0;" parent="1" source="6q7gE1WlEavFfcoU3s-2-28" target="jODI6DHRUSTKKwbDd7Hk-51" edge="1">
          <mxGeometry relative="1" as="geometry">
            <Array as="points">
              <mxPoint x="770" y="661" />
              <mxPoint x="770" y="305" />
            </Array>
          </mxGeometry>
        </mxCell>
        <mxCell id="jODI6DHRUSTKKwbDd7Hk-112" style="edgeStyle=orthogonalEdgeStyle;rounded=0;orthogonalLoop=1;jettySize=auto;html=1;entryX=1;entryY=0.5;entryDx=0;entryDy=0;strokeColor=#DDA15E;fontColor=default;fillColor=#BC6C25;labelBackgroundColor=none;" parent="1" source="jODI6DHRUSTKKwbDd7Hk-62" target="jODI6DHRUSTKKwbDd7Hk-48" edge="1">
          <mxGeometry relative="1" as="geometry">
            <Array as="points">
              <mxPoint x="960" y="635" />
              <mxPoint x="960" y="305" />
            </Array>
          </mxGeometry>
        </mxCell>
        <mxCell id="jODI6DHRUSTKKwbDd7Hk-126" style="edgeStyle=orthogonalEdgeStyle;rounded=0;orthogonalLoop=1;jettySize=auto;html=1;exitX=1;exitY=0.5;exitDx=0;exitDy=0;entryX=0;entryY=0.5;entryDx=0;entryDy=0;strokeColor=#DDA15E;fontColor=default;fillColor=#BC6C25;labelBackgroundColor=none;" parent="1" source="jODI6DHRUSTKKwbDd7Hk-122" target="jODI6DHRUSTKKwbDd7Hk-101" edge="1">
          <mxGeometry relative="1" as="geometry" />
        </mxCell>
        <mxCell id="jODI6DHRUSTKKwbDd7Hk-127" style="edgeStyle=orthogonalEdgeStyle;rounded=0;orthogonalLoop=1;jettySize=auto;html=1;strokeColor=#DDA15E;fontColor=default;fillColor=#BC6C25;entryX=0;entryY=0.5;entryDx=0;entryDy=0;exitX=1;exitY=0.5;exitDx=0;exitDy=0;labelBackgroundColor=none;" parent="1" source="jODI6DHRUSTKKwbDd7Hk-123" target="jODI6DHRUSTKKwbDd7Hk-48" edge="1">
          <mxGeometry relative="1" as="geometry">
            <mxPoint x="829.9999999999998" y="310" as="targetPoint" />
            <Array as="points">
              <mxPoint x="530" y="592" />
              <mxPoint x="530" y="680" />
              <mxPoint x="810" y="680" />
              <mxPoint x="810" y="305" />
            </Array>
          </mxGeometry>
        </mxCell>
        <mxCell id="jODI6DHRUSTKKwbDd7Hk-130" value="&lt;pre data-ved=&quot;2ahUKEwiQ2JfY6KONAxWL_rsIHaQ_BegQ3ewLegQIChAV&quot; aria-label=&quot;Переведенный текст: leave a review&quot; style=&quot;text-align:left&quot; id=&quot;tw-target-text&quot; data-placeholder=&quot;Перевод&quot; class=&quot;tw-data-text tw-text-large tw-ta&quot;&gt;&lt;span lang=&quot;en&quot; class=&quot;Y2IQFc&quot;&gt;reviews&lt;/span&gt;&lt;/pre&gt;" style="swimlane;fontStyle=0;childLayout=stackLayout;horizontal=1;startSize=20;fillColor=none;horizontalStack=0;resizeParent=1;resizeParentMax=0;resizeLast=0;collapsible=1;marginBottom=0;html=1;labelBackgroundColor=none;strokeColor=#DDA15E;fontColor=#FEFAE0;" parent="1" vertex="1">
          <mxGeometry x="610" y="60" width="140" height="170" as="geometry" />
        </mxCell>
        <mxCell id="jODI6DHRUSTKKwbDd7Hk-131" value="id" style="text;strokeColor=none;fillColor=none;align=left;verticalAlign=top;spacingLeft=4;spacingRight=4;overflow=hidden;rotatable=0;points=[[0,0.5],[1,0.5]];portConstraint=eastwest;whiteSpace=wrap;html=1;labelBackgroundColor=none;fontColor=#FEFAE0;" parent="jODI6DHRUSTKKwbDd7Hk-130" vertex="1">
          <mxGeometry y="20" width="140" height="30" as="geometry" />
        </mxCell>
        <mxCell id="jODI6DHRUSTKKwbDd7Hk-132" value="student_id" style="text;strokeColor=none;fillColor=none;align=left;verticalAlign=top;spacingLeft=4;spacingRight=4;overflow=hidden;rotatable=0;points=[[0,0.5],[1,0.5]];portConstraint=eastwest;whiteSpace=wrap;html=1;labelBackgroundColor=none;fontColor=#FEFAE0;" parent="jODI6DHRUSTKKwbDd7Hk-130" vertex="1">
          <mxGeometry y="50" width="140" height="30" as="geometry" />
        </mxCell>
        <mxCell id="jODI6DHRUSTKKwbDd7Hk-133" value="course_id" style="text;strokeColor=none;fillColor=none;align=left;verticalAlign=top;spacingLeft=4;spacingRight=4;overflow=hidden;rotatable=0;points=[[0,0.5],[1,0.5]];portConstraint=eastwest;whiteSpace=wrap;html=1;labelBackgroundColor=none;fontColor=#FEFAE0;" parent="jODI6DHRUSTKKwbDd7Hk-130" vertex="1">
          <mxGeometry y="80" width="140" height="30" as="geometry" />
        </mxCell>
        <mxCell id="jODI6DHRUSTKKwbDd7Hk-134" value="rating" style="text;strokeColor=none;fillColor=none;align=left;verticalAlign=top;spacingLeft=4;spacingRight=4;overflow=hidden;rotatable=0;points=[[0,0.5],[1,0.5]];portConstraint=eastwest;whiteSpace=wrap;html=1;labelBackgroundColor=none;fontColor=#FEFAE0;" parent="jODI6DHRUSTKKwbDd7Hk-130" vertex="1">
          <mxGeometry y="110" width="140" height="30" as="geometry" />
        </mxCell>
        <mxCell id="jODI6DHRUSTKKwbDd7Hk-135" value="comment" style="text;strokeColor=none;fillColor=none;align=left;verticalAlign=top;spacingLeft=4;spacingRight=4;overflow=hidden;rotatable=0;points=[[0,0.5],[1,0.5]];portConstraint=eastwest;whiteSpace=wrap;html=1;labelBackgroundColor=none;fontColor=#FEFAE0;" parent="jODI6DHRUSTKKwbDd7Hk-130" vertex="1">
          <mxGeometry y="140" width="140" height="30" as="geometry" />
        </mxCell>
        <mxCell id="jODI6DHRUSTKKwbDd7Hk-136" style="edgeStyle=orthogonalEdgeStyle;rounded=0;orthogonalLoop=1;jettySize=auto;html=1;exitX=1;exitY=0.5;exitDx=0;exitDy=0;entryX=0;entryY=0.5;entryDx=0;entryDy=0;strokeColor=#DDA15E;fontColor=default;fillColor=#BC6C25;labelBackgroundColor=none;" parent="1" source="jODI6DHRUSTKKwbDd7Hk-132" target="jODI6DHRUSTKKwbDd7Hk-48" edge="1">
          <mxGeometry relative="1" as="geometry">
            <Array as="points">
              <mxPoint x="800" y="125" />
              <mxPoint x="800" y="305" />
            </Array>
          </mxGeometry>
        </mxCell>
        <mxCell id="jODI6DHRUSTKKwbDd7Hk-137" style="edgeStyle=orthogonalEdgeStyle;rounded=0;orthogonalLoop=1;jettySize=auto;html=1;exitX=1;exitY=0.5;exitDx=0;exitDy=0;entryX=1;entryY=0.5;entryDx=0;entryDy=0;strokeColor=#DDA15E;fontColor=default;fillColor=#BC6C25;labelBackgroundColor=none;" parent="1" source="jODI6DHRUSTKKwbDd7Hk-133" target="jODI6DHRUSTKKwbDd7Hk-51" edge="1">
          <mxGeometry relative="1" as="geometry">
            <Array as="points">
              <mxPoint x="770" y="155" />
              <mxPoint x="770" y="305" />
            </Array>
          </mxGeometry>
        </mxCell>
        <mxCell id="jODI6DHRUSTKKwbDd7Hk-139" value="BaseFields&lt;div&gt;- Id&amp;nbsp; &amp;nbsp; &amp;nbsp; &amp;nbsp; &amp;nbsp; &amp;nbsp; &amp;nbsp;&amp;nbsp;&lt;/div&gt;&lt;div&gt;- CreatedAt&amp;nbsp;&lt;/div&gt;&lt;div&gt;- UpdatedAt&amp;nbsp;&lt;/div&gt;" style="rounded=1;whiteSpace=wrap;html=1;strokeColor=#DDA15E;fontColor=#FEFAE0;fillColor=none;labelBackgroundColor=none;" parent="1" vertex="1">
          <mxGeometry x="340" y="100" width="130" height="90" as="geometry" />
        </mxCell>
        <mxCell id="6q7gE1WlEavFfcoU3s-2-1" style="edgeStyle=orthogonalEdgeStyle;rounded=0;orthogonalLoop=1;jettySize=auto;html=1;exitX=1;exitY=0.5;exitDx=0;exitDy=0;entryX=0;entryY=0.5;entryDx=0;entryDy=0;labelBackgroundColor=none;strokeColor=#DDA15E;fontColor=default;" edge="1" parent="1" source="jODI6DHRUSTKKwbDd7Hk-76" target="jODI6DHRUSTKKwbDd7Hk-88">
          <mxGeometry relative="1" as="geometry" />
        </mxCell>
        <mxCell id="6q7gE1WlEavFfcoU3s-2-3" value="transactions&amp;nbsp;" style="swimlane;fontStyle=0;childLayout=stackLayout;horizontal=1;startSize=20;fillColor=none;horizontalStack=0;resizeParent=1;resizeParentMax=0;resizeLast=0;collapsible=1;marginBottom=0;html=1;labelBackgroundColor=none;strokeColor=#DDA15E;fontColor=#FEFAE0;" vertex="1" parent="1">
          <mxGeometry x="1050" y="572" width="110" height="206" as="geometry" />
        </mxCell>
        <mxCell id="6q7gE1WlEavFfcoU3s-2-4" value="id" style="text;strokeColor=none;fillColor=none;align=left;verticalAlign=top;spacingLeft=4;spacingRight=4;overflow=hidden;rotatable=0;points=[[0,0.5],[1,0.5]];portConstraint=eastwest;whiteSpace=wrap;html=1;labelBackgroundColor=none;fontColor=#FEFAE0;" vertex="1" parent="6q7gE1WlEavFfcoU3s-2-3">
          <mxGeometry y="20" width="110" height="30" as="geometry" />
        </mxCell>
        <mxCell id="6q7gE1WlEavFfcoU3s-2-5" value="user_id" style="text;strokeColor=none;fillColor=none;align=left;verticalAlign=top;spacingLeft=4;spacingRight=4;overflow=hidden;rotatable=0;points=[[0,0.5],[1,0.5]];portConstraint=eastwest;whiteSpace=wrap;html=1;labelBackgroundColor=none;fontColor=#FEFAE0;" vertex="1" parent="6q7gE1WlEavFfcoU3s-2-3">
          <mxGeometry y="50" width="110" height="26" as="geometry" />
        </mxCell>
        <mxCell id="6q7gE1WlEavFfcoU3s-2-6" value="amount" style="text;strokeColor=none;fillColor=none;align=left;verticalAlign=top;spacingLeft=4;spacingRight=4;overflow=hidden;rotatable=0;points=[[0,0.5],[1,0.5]];portConstraint=eastwest;whiteSpace=wrap;html=1;labelBackgroundColor=none;fontColor=#FEFAE0;" vertex="1" parent="6q7gE1WlEavFfcoU3s-2-3">
          <mxGeometry y="76" width="110" height="26" as="geometry" />
        </mxCell>
        <mxCell id="6q7gE1WlEavFfcoU3s-2-8" value="currency" style="text;strokeColor=none;fillColor=none;align=left;verticalAlign=top;spacingLeft=4;spacingRight=4;overflow=hidden;rotatable=0;points=[[0,0.5],[1,0.5]];portConstraint=eastwest;whiteSpace=wrap;html=1;labelBackgroundColor=none;fontColor=#FEFAE0;" vertex="1" parent="6q7gE1WlEavFfcoU3s-2-3">
          <mxGeometry y="102" width="110" height="26" as="geometry" />
        </mxCell>
        <mxCell id="6q7gE1WlEavFfcoU3s-2-7" value="type" style="text;strokeColor=none;fillColor=none;align=left;verticalAlign=top;spacingLeft=4;spacingRight=4;overflow=hidden;rotatable=0;points=[[0,0.5],[1,0.5]];portConstraint=eastwest;whiteSpace=wrap;html=1;labelBackgroundColor=none;fontColor=#FEFAE0;" vertex="1" parent="6q7gE1WlEavFfcoU3s-2-3">
          <mxGeometry y="128" width="110" height="26" as="geometry" />
        </mxCell>
        <mxCell id="6q7gE1WlEavFfcoU3s-2-9" value="status" style="text;strokeColor=none;fillColor=none;align=left;verticalAlign=top;spacingLeft=4;spacingRight=4;overflow=hidden;rotatable=0;points=[[0,0.5],[1,0.5]];portConstraint=eastwest;whiteSpace=wrap;html=1;labelBackgroundColor=none;fontColor=#FEFAE0;" vertex="1" parent="6q7gE1WlEavFfcoU3s-2-3">
          <mxGeometry y="154" width="110" height="26" as="geometry" />
        </mxCell>
        <mxCell id="6q7gE1WlEavFfcoU3s-2-10" value="description" style="text;strokeColor=none;fillColor=none;align=left;verticalAlign=top;spacingLeft=4;spacingRight=4;overflow=hidden;rotatable=0;points=[[0,0.5],[1,0.5]];portConstraint=eastwest;whiteSpace=wrap;html=1;labelBackgroundColor=none;fontColor=#FEFAE0;" vertex="1" parent="6q7gE1WlEavFfcoU3s-2-3">
          <mxGeometry y="180" width="110" height="26" as="geometry" />
        </mxCell>
        <mxCell id="6q7gE1WlEavFfcoU3s-2-12" style="edgeStyle=orthogonalEdgeStyle;rounded=0;orthogonalLoop=1;jettySize=auto;html=1;exitX=0;exitY=0.5;exitDx=0;exitDy=0;entryX=1;entryY=0.5;entryDx=0;entryDy=0;strokeColor=#DDA15E;fontColor=#FEFAE0;fillColor=#BC6C25;" edge="1" parent="1" source="6q7gE1WlEavFfcoU3s-2-5" target="jODI6DHRUSTKKwbDd7Hk-48">
          <mxGeometry relative="1" as="geometry">
            <Array as="points">
              <mxPoint x="970" y="635" />
              <mxPoint x="970" y="305" />
            </Array>
          </mxGeometry>
        </mxCell>
        <mxCell id="6q7gE1WlEavFfcoU3s-2-13" value="&lt;code data-end=&quot;1362&quot; data-start=&quot;1344&quot;&gt;submission_&lt;/code&gt;files" style="swimlane;fontStyle=0;childLayout=stackLayout;horizontal=1;startSize=20;fillColor=none;horizontalStack=0;resizeParent=1;resizeParentMax=0;resizeLast=0;collapsible=1;marginBottom=0;html=1;labelBackgroundColor=none;strokeColor=#DDA15E;fontColor=#FEFAE0;" vertex="1" parent="1">
          <mxGeometry x="560" y="690" width="175" height="102" as="geometry" />
        </mxCell>
        <mxCell id="6q7gE1WlEavFfcoU3s-2-14" value="id" style="text;strokeColor=none;fillColor=none;align=left;verticalAlign=top;spacingLeft=4;spacingRight=4;overflow=hidden;rotatable=0;points=[[0,0.5],[1,0.5]];portConstraint=eastwest;whiteSpace=wrap;html=1;labelBackgroundColor=none;fontColor=#FEFAE0;" vertex="1" parent="6q7gE1WlEavFfcoU3s-2-13">
          <mxGeometry y="20" width="175" height="30" as="geometry" />
        </mxCell>
        <mxCell id="6q7gE1WlEavFfcoU3s-2-16" value="&lt;code data-end=&quot;1362&quot; data-start=&quot;1344&quot;&gt;submission_id&lt;/code&gt;" style="text;strokeColor=none;fillColor=none;align=left;verticalAlign=top;spacingLeft=4;spacingRight=4;overflow=hidden;rotatable=0;points=[[0,0.5],[1,0.5]];portConstraint=eastwest;whiteSpace=wrap;html=1;labelBackgroundColor=none;fontColor=#FEFAE0;" vertex="1" parent="6q7gE1WlEavFfcoU3s-2-13">
          <mxGeometry y="50" width="175" height="26" as="geometry" />
        </mxCell>
        <mxCell id="6q7gE1WlEavFfcoU3s-2-17" value="file_name" style="text;strokeColor=none;fillColor=none;align=left;verticalAlign=top;spacingLeft=4;spacingRight=4;overflow=hidden;rotatable=0;points=[[0,0.5],[1,0.5]];portConstraint=eastwest;whiteSpace=wrap;html=1;labelBackgroundColor=none;fontColor=#FEFAE0;" vertex="1" parent="6q7gE1WlEavFfcoU3s-2-13">
          <mxGeometry y="76" width="175" height="26" as="geometry" />
        </mxCell>
        <mxCell id="6q7gE1WlEavFfcoU3s-2-20" style="edgeStyle=orthogonalEdgeStyle;rounded=0;orthogonalLoop=1;jettySize=auto;html=1;exitX=0;exitY=0.5;exitDx=0;exitDy=0;entryX=0;entryY=0.5;entryDx=0;entryDy=0;strokeColor=#DDA15E;fontColor=#FEFAE0;fillColor=#BC6C25;" edge="1" parent="1" source="6q7gE1WlEavFfcoU3s-2-16" target="jODI6DHRUSTKKwbDd7Hk-101">
          <mxGeometry relative="1" as="geometry">
            <Array as="points">
              <mxPoint x="490" y="753" />
              <mxPoint x="490" y="545" />
            </Array>
          </mxGeometry>
        </mxCell>
        <mxCell id="6q7gE1WlEavFfcoU3s-2-21" value="&lt;code data-end=&quot;1362&quot; data-start=&quot;1344&quot;&gt;&lt;span style=&quot;font-family: Helvetica;&quot;&gt;assessed&lt;/span&gt;_files&lt;/code&gt;&amp;nbsp;" style="swimlane;fontStyle=0;childLayout=stackLayout;horizontal=1;startSize=20;fillColor=none;horizontalStack=0;resizeParent=1;resizeParentMax=0;resizeLast=0;collapsible=1;marginBottom=0;html=1;labelBackgroundColor=none;strokeColor=#DDA15E;fontColor=#FEFAE0;" vertex="1" parent="1">
          <mxGeometry x="302.5" y="700" width="175" height="102" as="geometry" />
        </mxCell>
        <mxCell id="6q7gE1WlEavFfcoU3s-2-22" value="id" style="text;strokeColor=none;fillColor=none;align=left;verticalAlign=top;spacingLeft=4;spacingRight=4;overflow=hidden;rotatable=0;points=[[0,0.5],[1,0.5]];portConstraint=eastwest;whiteSpace=wrap;html=1;labelBackgroundColor=none;fontColor=#FEFAE0;" vertex="1" parent="6q7gE1WlEavFfcoU3s-2-21">
          <mxGeometry y="20" width="175" height="30" as="geometry" />
        </mxCell>
        <mxCell id="6q7gE1WlEavFfcoU3s-2-24" value="&lt;code data-end=&quot;1362&quot; data-start=&quot;1344&quot;&gt;&lt;span style=&quot;font-family: Helvetica; text-align: center; text-wrap-mode: nowrap;&quot;&gt;assessed&lt;/span&gt;_id&lt;/code&gt;" style="text;strokeColor=none;fillColor=none;align=left;verticalAlign=top;spacingLeft=4;spacingRight=4;overflow=hidden;rotatable=0;points=[[0,0.5],[1,0.5]];portConstraint=eastwest;whiteSpace=wrap;html=1;labelBackgroundColor=none;fontColor=#FEFAE0;" vertex="1" parent="6q7gE1WlEavFfcoU3s-2-21">
          <mxGeometry y="50" width="175" height="26" as="geometry" />
        </mxCell>
        <mxCell id="6q7gE1WlEavFfcoU3s-2-25" value="file_name" style="text;strokeColor=none;fillColor=none;align=left;verticalAlign=top;spacingLeft=4;spacingRight=4;overflow=hidden;rotatable=0;points=[[0,0.5],[1,0.5]];portConstraint=eastwest;whiteSpace=wrap;html=1;labelBackgroundColor=none;fontColor=#FEFAE0;" vertex="1" parent="6q7gE1WlEavFfcoU3s-2-21">
          <mxGeometry y="76" width="175" height="26" as="geometry" />
        </mxCell>
        <mxCell id="6q7gE1WlEavFfcoU3s-2-26" style="edgeStyle=orthogonalEdgeStyle;rounded=0;orthogonalLoop=1;jettySize=auto;html=1;exitX=0;exitY=0.5;exitDx=0;exitDy=0;entryX=0;entryY=0.5;entryDx=0;entryDy=0;strokeColor=#DDA15E;fontColor=#FEFAE0;fillColor=#BC6C25;" edge="1" parent="1" source="6q7gE1WlEavFfcoU3s-2-24" target="jODI6DHRUSTKKwbDd7Hk-60">
          <mxGeometry relative="1" as="geometry" />
        </mxCell>
      </root>
    </mxGraphModel>
  </diagram>
</mxfile>
